<svg id="SvgjsSvg1021" width="288" height="288" xmlns="http://www.w3.org/2000/svg" version="1.1" xmlns:xlink="http://www.w3.org/1999/xlink" xmlns:svgjs="http://svgjs.com/svgjs"><defs id="SvgjsDefs1022"></defs><g id="SvgjsG1023"><svg xmlns="http://www.w3.org/2000/svg" fill-rule="evenodd" clip-rule="evenodd" viewBox="0 0 24 24" width="288" height="288"><path d="M19 24h-14c-2.761 0-5-2.239-5-5v-14c0-2.761 2.239-5 5-5h14c2.762 0 5 2.239 5 5v14c0 2.761-2.238 5-5 5zm-.141-6.333c.63 0 1.141-.512 1.141-1.142v-9.05c0-.63-.511-1.142-1.141-1.142h-13.718c-.63 0-1.141.512-1.141 1.142v9.05c0 .63.511 1.142 1.141 1.142h13.718zm-6.859-4.058l-6.228-4.321-.014 7.712h12.457v-7.712l-6.215 4.321zm5.913-6.609c-1.745 1.215-5.913 4.153-5.913 4.153l-5.947-4.153h11.86z" fill="#ba53de" class="color000 svgShape"></path></svg></g></svg>